<svg fill="#ffffff" height="200px" width="200px" version="1.1" id="Layer_1" xmlns="http://www.w3.org/2000/svg" xmlns:xlink="http://www.w3.org/1999/xlink" viewBox="0 0 512 512" xml:space="preserve" stroke="#ffffff"><g id="SVGRepo_bgCarrier" stroke-width="0"></g><g id="SVGRepo_tracerCarrier" stroke-linecap="round" stroke-linejoin="round"></g><g id="SVGRepo_iconCarrier"> <g> <g> <g> <path d="M414.956,6.911H97.044C43.533,6.911,0,50.444,0,103.955V493.57c0,6.361,5.157,11.519,11.519,11.519 s11.519-5.158,11.519-11.519v-54.713h149.741v54.713c0,6.361,5.157,11.519,11.519,11.519s11.519-5.158,11.519-11.519v-54.713 h293.147v54.713c0,6.361,5.157,11.519,11.519,11.519c6.362,0,11.519-5.158,11.519-11.519V103.955 C512,50.444,468.467,6.911,414.956,6.911z M172.778,415.82h-63.352V246.785c0-6.361-5.157-11.519-11.519-11.519 s-11.519,5.158-11.519,11.519V415.82H23.037V103.955c0-40.808,33.199-74.007,74.007-74.007h1.728 c40.808,0,74.007,33.199,74.007,74.007V415.82z M488.963,415.82H195.816V103.955c0-29.635-13.366-56.192-34.37-74.007h253.511 c40.808,0,74.007,33.199,74.007,74.007V415.82z"></path> <path d="M448.648,111.154H236.13c-6.362,0-11.519,5.158-11.519,11.519v252.832c0,6.361,5.157,11.519,11.519,11.519h212.517 c6.362,0,11.519-5.158,11.519-11.519V122.673C460.167,116.312,455.01,111.154,448.648,111.154z M437.129,363.987h-189.48V194.952 h189.48V363.987z M437.129,171.914h-189.48v-37.723h189.48V171.914z"></path> <path d="M287.964,335.19h108.85c6.362,0,11.519-5.158,11.519-11.519v-88.405c0-6.361-5.157-11.519-11.519-11.519h-108.85 c-6.362,0-11.519,5.158-11.519,11.519v88.405C276.445,330.032,281.602,335.19,287.964,335.19z M367.044,246.785l-24.654,22.437 l-24.654-22.437H367.044z M299.483,261.324l35.154,31.992c2.198,2,4.975,2.999,7.752,2.999c2.777,0,5.555-1,7.752-2.999 l35.155-31.992v50.829h-85.812V261.324z"></path> <path d="M98.772,173.354c-6.362,0-11.519,5.158-11.519,11.519v12.382c0,6.361,5.157,11.519,11.519,11.519 s11.519-5.158,11.519-11.519v-12.382C110.29,178.512,105.133,173.354,98.772,173.354z"></path> </g> </g> </g> </g></svg>